<svg width="31" height="31" viewBox="0 0 31 31" fill="none" xmlns="http://www.w3.org/2000/svg">
<path d="M15.5 21.1001C18.8136 21.1001 21.5 18.4137 21.5 15.1001C21.5 11.7864 18.8136 9.1001 15.5 9.1001C12.1863 9.1001 9.5 11.7864 9.5 15.1001C9.5 18.4137 12.1863 21.1001 15.5 21.1001Z" stroke="white" stroke-width="3" stroke-linecap="round" stroke-linejoin="round"/>
<path d="M2 21.1001V9.1001C2 4.95797 5.35787 1.6001 9.5 1.6001H21.5C25.6421 1.6001 29 4.95797 29 9.1001V21.1001C29 25.2422 25.6421 28.6001 21.5 28.6001H9.5C5.35787 28.6001 2 25.2422 2 21.1001Z" stroke="white" stroke-width="3"/>
<path d="M23.75 6.86493L23.7642 6.84863" stroke="white" stroke-width="3" stroke-linecap="round" stroke-linejoin="round"/>
</svg>
