<svg width="41" height="41" viewBox="0 0 41 41" fill="none" xmlns="http://www.w3.org/2000/svg">
<path d="M30.7501 34.1667C30.7501 31.4482 29.6702 28.8411 27.7479 26.9188C25.8257 24.9966 23.2186 23.9167 20.5001 23.9167M20.5001 23.9167C17.7816 23.9167 15.1745 24.9966 13.2522 26.9188C11.33 28.8411 10.2501 31.4482 10.2501 34.1667M20.5001 23.9167C24.274 23.9167 27.3334 20.8573 27.3334 17.0834C27.3334 13.3094 24.274 10.25 20.5001 10.25C16.7261 10.25 13.6667 13.3094 13.6667 17.0834C13.6667 20.8573 16.7261 23.9167 20.5001 23.9167ZM37.5834 20.5C37.5834 29.9349 29.9349 37.5834 20.5001 37.5834C11.0652 37.5834 3.41675 29.9349 3.41675 20.5C3.41675 11.0652 11.0652 3.41669 20.5001 3.41669C29.9349 3.41669 37.5834 11.0652 37.5834 20.5Z" stroke="white" stroke-width="2" stroke-linecap="round" stroke-linejoin="round"/>
</svg>
