<svg width="71" height="65" viewBox="0 0 71 65" fill="none" xmlns="http://www.w3.org/2000/svg">
<ellipse cx="35.5" cy="32.5" rx="35.5" ry="32.5" fill="#004C4C"/>
<path d="M31.4608 35.6278C31.19 35.3417 30.8674 35.1165 30.5122 34.966L19.2781 30.196C19.1439 30.139 19.0295 30.0399 18.95 29.9121C18.8706 29.7842 18.83 29.6337 18.8337 29.4807C18.8374 29.3278 18.8852 29.1796 18.9707 29.0562C19.0562 28.9329 19.1753 28.8401 19.3121 28.7905L46.2287 19.0405C46.3542 18.9925 46.4901 18.9833 46.6204 19.0141C46.7506 19.0448 46.8699 19.1142 46.9643 19.2142C47.0587 19.3141 47.1242 19.4404 47.1533 19.5783C47.1823 19.7163 47.1736 19.8601 47.1283 19.993L37.92 48.493C37.8731 48.6377 37.7855 48.7639 37.669 48.8544C37.5525 48.9449 37.4126 48.9955 37.2681 48.9995C37.1236 49.0034 36.9814 48.9604 36.8607 48.8763C36.7399 48.7922 36.6464 48.671 36.5926 48.529L32.0876 36.631C31.9447 36.2552 31.7315 35.914 31.4608 35.6278ZM31.4608 35.6278L46.9597 19.2205" stroke="white" stroke-width="2" stroke-linecap="round" stroke-linejoin="round"/>
</svg>
