<svg width="19" height="19" viewBox="0 0 19 19" fill="none" xmlns="http://www.w3.org/2000/svg">
<g clip-path="url(#clip0_194_157)">
<path d="M1.58312 1.58331C3.97285 3.48968 5.91887 5.89348 7.28599 8.62771C8.6531 11.3619 9.40853 14.361 9.49979 17.4166C10.2123 12.0175 10.6873 9.89581 12.6665 6.33331M12.6665 6.33331C15.8331 6.33331 17.4165 4.74998 17.4165 1.58331C14.2498 1.58331 12.6665 3.16665 12.6665 6.33331ZM13.7827 2.84998C12.1399 1.79316 10.1643 1.38103 8.23594 1.69286C6.30757 2.00468 4.56258 3.01844 3.33654 4.53918C2.1105 6.05991 1.48998 7.98024 1.59432 9.93086C1.69866 11.8815 2.52048 13.7247 3.90175 15.1059C5.28302 16.4872 7.1262 17.309 9.07683 17.4134C11.0274 17.5177 12.9478 16.8972 14.4685 15.6711C15.9892 14.4451 17.003 12.7001 17.3148 10.7718C17.6267 8.84339 17.2145 6.86783 16.1577 5.22498" stroke="white" stroke-width="2" stroke-linecap="round" stroke-linejoin="round"/>
</g>
<defs>
<clipPath id="clip0_194_157">
<rect width="19" height="19" fill="white"/>
</clipPath>
</defs>
</svg>
