<svg width="19" height="19" viewBox="0 0 19 19" fill="none" xmlns="http://www.w3.org/2000/svg">
<g clip-path="url(#clip0_194_151)">
<path d="M9.82351 10.3051C10.1844 9.46863 10.8227 8.78223 11.6308 8.36171C12.4389 7.94118 13.3674 7.81227 14.2595 7.99672C15.1516 8.18117 15.9528 8.6677 16.5279 9.37421C17.103 10.0807 17.4168 10.964 17.4164 11.875C17.4164 14.9356 14.2497 17.4166 10.2914 17.4166C7.06376 17.4166 3.83693 16.7675 2.08101 15.4676C1.74376 15.2174 1.58147 14.8089 1.59018 14.3893C1.67647 10.0724 2.07943 1.58331 7.91638 1.58331C8.54627 1.58331 9.15036 1.83354 9.59576 2.27893C10.0412 2.72433 10.2914 3.32842 10.2914 3.95831C10.2914 4.37824 10.1246 4.78097 9.82764 5.0779C9.5307 5.37483 9.12798 5.54165 8.70805 5.54165C7.83326 5.54165 7.40972 5.19015 7.12472 4.74998M11.8747 11.0833C11.3969 10.7248 10.8442 10.479 10.2579 10.3645C9.67169 10.2499 9.06711 10.2695 8.48951 10.4219C7.91191 10.5742 7.37628 10.8553 6.92275 11.244C6.46922 11.6328 6.10956 12.1191 5.87072 12.6666M7.88788 5.4031C6.34809 6.3151 7.52055 10.2916 6.33305 11.875" stroke="white" stroke-width="2" stroke-linecap="round" stroke-linejoin="round"/>
</g>
<defs>
<clipPath id="clip0_194_151">
<rect width="19" height="19" fill="white"/>
</clipPath>
</defs>
</svg>
